<?xml version="1.0" standalone="no"?>
<!DOCTYPE svg PUBLIC "-//W3C//DTD SVG 20010904//EN"
 "http://www.w3.org/TR/2001/REC-SVG-20010904/DTD/svg10.dtd">
<svg version="1.0" xmlns="http://www.w3.org/2000/svg"
 width="512.000000pt" height="512.000000pt" viewBox="0 0 512.000000 512.000000"
 preserveAspectRatio="xMidYMid meet">
<metadata>
Created by potrace 1.14, written by Peter Selinger 2001-2017
</metadata>
<g transform="translate(0.000000,512.000000) scale(0.100000,-0.100000)"
fill="#000000" stroke="none">
<path d="M1767 4562 c-14 -15 -17 -42 -17 -148 l0 -130 -87 1 c-49 0 -100 -3
-114 -8 -32 -10 -42 -39 -27 -73 12 -26 15 -26 171 -25 l58 0 -3 -142 -3 -142
-150 -1 c-195 -2 -184 0 -197 -29 -9 -19 -8 -29 6 -50 l16 -25 165 0 165 0 0
-198 0 -198 -47 1 c-132 4 -211 -75 -208 -207 1 -48 1 -48 -32 -48 l-33 0 0
220 0 220 -24 15 c-26 17 -75 6 -77 -17 -1 -7 -2 -109 -3 -227 -1 -164 -4
-215 -14 -219 -34 -11 -70 -55 -79 -94 -6 -24 -10 -126 -9 -228 1 -102 0 -191
-2 -197 -2 -7 -12 -13 -21 -13 -30 0 -82 -40 -97 -75 -19 -45 -19 -197 0 -233
19 -37 44 -57 86 -71 l35 -11 0 -153 0 -153 -140 1 -140 0 -3 40 c-3 47 -11
55 -100 115 l-67 45 -3 366 c-2 313 -4 369 -17 379 -21 18 -189 18 -210 0 -13
-11 -15 -71 -15 -479 l0 -466 -212 0 c-219 1 -258 -5 -301 -43 -15 -13 -17
-30 -15 -121 l3 -106 51 -25 52 -24 21 -101 c12 -55 24 -114 27 -130 28 -162
109 -235 267 -240 71 -3 83 -6 133 -39 83 -55 196 -168 250 -249 103 -155 233
-250 378 -276 82 -15 3295 -15 3348 -1 102 29 177 133 178 246 0 51 -6 73 -31
120 -56 104 -67 128 -74 171 -7 47 1 68 74 178 60 92 73 108 153 187 79 78
146 126 195 140 20 5 49 19 65 31 28 20 28 22 28 122 0 85 -3 105 -17 117 -33
29 -63 39 -122 41 l-58 2 0 49 c0 39 -5 53 -23 68 -28 22 -32 22 -60 0 -17
-14 -22 -29 -23 -67 l-2 -50 -240 0 -240 0 -5 55 c-4 46 -9 57 -32 70 -26 14
-29 13 -50 -8 -17 -17 -23 -34 -23 -70 l0 -47 -240 0 -240 0 -7 54 c-7 57 -11
65 -45 75 -32 10 -65 -29 -63 -74 1 -19 2 -40 1 -45 -1 -14 -481 -14 -482 0 0
5 -2 28 -3 51 -4 51 -9 60 -41 66 -42 8 -65 -17 -63 -68 0 -24 -2 -47 -6 -52
-4 -4 -183 -7 -397 -7 l-389 0 0 157 c0 154 1 158 21 158 31 0 74 29 94 63 27
45 29 195 3 247 -19 37 -66 70 -102 70 -14 0 -16 25 -16 215 0 150 -4 222 -12
242 -18 39 -57 71 -95 79 -32 6 -33 7 -33 60 0 122 -70 195 -189 199 -26 1
-51 4 -57 7 -6 4 -9 81 -9 195 l0 188 158 3 c152 2 157 3 172 26 17 26 8 70
-17 78 -7 2 -79 4 -160 3 -82 0 -149 2 -149 5 -1 3 -2 67 -3 142 l-1 137 65 0
c105 -2 118 0 134 17 20 19 20 44 2 69 -11 16 -27 19 -105 18 -50 0 -91 2 -92
6 -1 3 -2 63 -3 132 -2 135 -9 159 -51 159 -12 0 -29 -8 -38 -18z"/>
<path d="M4507 3359 c-34 -5 -108 -41 -240 -115 -106 -59 -221 -123 -256 -142
-36 -19 -78 -43 -94 -52 -29 -18 -30 -18 -115 23 -112 52 -180 55 -259 12 -75
-40 -71 -54 36 -143 48 -40 98 -82 110 -93 58 -55 179 -84 264 -65 37 9 110
37 122 48 18 16 26 7 21 -24 -3 -18 -8 -65 -12 -104 -8 -90 5 -99 77 -53 92
58 132 121 144 226 9 74 13 95 19 100 2 3 105 67 228 143 157 97 223 143 223
156 0 10 -15 29 -34 41 -59 40 -148 56 -234 42z"/>
</g>
</svg>
