<?xml version="1.0" standalone="no"?>
<!DOCTYPE svg PUBLIC "-//W3C//DTD SVG 20010904//EN"
 "http://www.w3.org/TR/2001/REC-SVG-20010904/DTD/svg10.dtd">
<svg version="1.0" xmlns="http://www.w3.org/2000/svg"
 width="512.000000pt" height="512.000000pt" viewBox="0 0 512.000000 512.000000"
 preserveAspectRatio="xMidYMid meet">
<metadata>
Created by potrace 1.11, written by Peter Selinger 2001-2013
</metadata>
<g transform="translate(0.000000,512.000000) scale(0.100000,-0.100000)"
fill="#000000" stroke="none">
<path d="M2325 5111 c-11 -5 -29 -19 -40 -31 -19 -21 -20 -38 -23 -391 l-3
-369 -250 0 c-268 0 -294 -4 -321 -53 -8 -14 -14 -79 -16 -184 l-4 -162 -174
-3 -174 -3 -27 -28 -28 -27 -3 -169 -3 -169 -119 -4 c-115 -3 -121 -4 -147
-31 l-28 -27 -3 -448 -3 -447 -237 -143 c-130 -79 -244 -148 -253 -155 -20
-16 -39 -51 -39 -74 0 -13 409 -1405 516 -1756 5 -16 3 -17 -13 -8 -11 5 -64
18 -119 27 -238 40 -436 -15 -662 -186 -103 -78 -139 -115 -147 -151 -10 -43
11 -85 50 -103 59 -28 59 -29 209 85 192 145 367 196 528 154 31 -8 101 -34
155 -59 163 -73 251 -96 388 -103 153 -7 235 12 412 98 336 161 434 165 726
28 271 -127 393 -157 561 -139 108 13 184 39 345 119 155 78 232 106 313 116
101 13 243 -22 409 -98 262 -121 513 -115 734 17 59 35 197 141 242 185 58 58
52 135 -12 165 -61 29 -62 29 -216 -96 -96 -78 -173 -122 -254 -143 -67 -17
-169 -19 -235 -5 -69 16 -190 63 -190 75 0 6 117 404 260 885 143 481 260 883
260 893 0 23 -19 58 -39 74 -9 7 -123 76 -253 155 l-237 143 -3 447 -3 448
-28 27 c-26 27 -32 28 -147 31 l-119 4 -3 169 -3 169 -28 27 -27 28 -174 3
-174 3 -4 162 c-2 105 -8 170 -16 184 -27 49 -53 53 -321 53 l-250 0 -3 370
-3 370 -28 27 -27 28 -228 2 c-125 1 -236 -2 -247 -6z m915 -1091 l0 -100
-680 0 -680 0 0 100 0 100 680 0 680 0 0 -100z m420 -400 l0 -100 -1100 0
-1100 0 0 100 0 100 1100 0 1100 0 0 -100z m-1485 -314 c-17 -11 -269 -165
-877 -532 l-138 -83 0 314 0 315 517 0 c442 0 515 -2 498 -14z m1785 -301 l0
-314 -137 83 c-609 367 -861 521 -878 532 -17 12 56 14 498 14 l517 0 0 -315z"/>
</g>
</svg>
