<?xml version="1.0" standalone="no"?>
<!DOCTYPE svg PUBLIC "-//W3C//DTD SVG 20010904//EN"
 "http://www.w3.org/TR/2001/REC-SVG-20010904/DTD/svg10.dtd">
<svg version="1.0" xmlns="http://www.w3.org/2000/svg"
 width="512.000000pt" height="512.000000pt" viewBox="0 0 512.000000 512.000000"
 preserveAspectRatio="xMidYMid meet">
<metadata>
Created by potrace 1.11, written by Peter Selinger 2001-2013
</metadata>
<g transform="translate(0.000000,512.000000) scale(0.100000,-0.100000)"
fill="#000000" stroke="none">
<path d="M2185 4790 c-51 -27 -75 -90 -75 -192 l0 -88 -390 0 c-437 0 -438 0
-485 -72 -37 -56 -32 -126 15 -178 33 -37 74 -50 162 -50 54 0 68 -3 68 -15 0
-8 -15 -106 -34 -217 -19 -112 -38 -223 -41 -248 -3 -25 -9 -61 -13 -80 l-8
-35 -114 -5 c-123 -6 -147 -14 -178 -57 -57 -81 -28 -192 61 -231 15 -7 61
-12 102 -12 59 0 75 -3 75 -14 0 -8 -11 -80 -25 -160 -14 -80 -27 -162 -30
-183 -3 -21 -8 -49 -10 -63 -3 -14 -8 -42 -11 -64 -18 -122 -8 -114 -137 -118
-100 -3 -116 -6 -142 -26 -63 -50 -80 -122 -46 -191 41 -80 8 -76 629 -79
l552 -3 0 -168 0 -168 -57 20 c-75 25 -154 19 -228 -18 -75 -36 -152 -134
-157 -200 -3 -31 -18 -33 -18 -2 -1 68 -84 172 -169 210 -64 30 -178 30 -242
0 -92 -41 -159 -132 -175 -235 l-7 -40 -40 6 c-92 15 -175 86 -211 182 -8 21
-44 121 -81 221 -51 139 -79 200 -116 253 -99 141 -246 224 -419 236 -66 4
-80 2 -114 -18 -21 -13 -47 -39 -58 -58 -17 -33 -18 -68 -17 -700 0 -524 4
-682 15 -744 78 -441 423 -782 874 -863 25 -4 718 -8 1540 -8 l1495 0 100 28
c188 52 346 143 483 277 134 131 229 295 280 480 l26 95 4 620 3 620 48 22
c64 29 148 108 188 174 55 92 65 152 61 383 -3 189 -5 207 -24 232 -45 61 -52
62 -364 63 -302 1 -353 -5 -455 -50 -174 -76 -323 -259 -354 -433 -7 -36 -11
-226 -11 -475 0 -398 -1 -416 -21 -457 -34 -72 -73 -84 -267 -84 -123 0 -162
3 -163 13 -6 108 -70 207 -167 254 -75 37 -181 39 -256 5 -80 -36 -163 -138
-168 -207 -3 -37 -15 -30 -22 13 -3 21 -20 60 -38 86 -76 115 -215 162 -345
117 l-53 -18 0 169 0 168 543 0 c509 0 544 1 577 19 104 54 108 200 8 261 -28
17 -51 20 -140 20 -103 0 -108 1 -113 23 -7 28 -95 557 -95 568 0 5 37 9 83 9
72 0 87 3 121 26 42 29 66 75 66 129 0 49 -23 89 -67 120 -35 23 -47 25 -145
25 -103 0 -108 1 -113 23 -2 12 -14 78 -25 147 -12 69 -23 139 -26 155 -16 89
-44 261 -44 268 0 4 34 7 75 7 93 0 135 17 169 66 51 75 25 176 -54 216 -32
16 -74 18 -427 18 l-393 0 0 98 c0 110 -15 147 -72 182 -39 24 -109 24 -153 0z"/>
</g>
</svg>
